<?xml version="1.0" encoding="UTF-8" standalone="no"?>
<svg
   width="135.47mm"
   height="135.47mm"
   version="1.1"
   viewBox="0 0 135.47 95.785"
   id="svg21"
   sodipodi:docname="logo1.svg"
   inkscape:version="1.1 (c68e22c387, 2021-05-23)"
   inkscape:export-filename="C:\Users\tctom\Dropbox\UKSD\ukshuffledance.github.io\assets\img\logo1text.png"
   inkscape:export-xdpi="192"
   inkscape:export-ydpi="192"
   xmlns:inkscape="http://www.inkscape.org/namespaces/inkscape"
   xmlns:sodipodi="http://sodipodi.sourceforge.net/DTD/sodipodi-0.dtd"
   xmlns:xlink="http://www.w3.org/1999/xlink"
   xmlns="http://www.w3.org/2000/svg"
   xmlns:svg="http://www.w3.org/2000/svg"
   xmlns:rdf="http://www.w3.org/1999/02/22-rdf-syntax-ns#"
   xmlns:cc="http://creativecommons.org/ns#"
   xmlns:dc="http://purl.org/dc/elements/1.1/">
  <defs
     id="defs25" />
  <sodipodi:namedview
     id="namedview23"
     pagecolor="#505050"
     bordercolor="#ffffff"
     borderopacity="1"
     inkscape:pageshadow="0"
     inkscape:pageopacity="0"
     inkscape:pagecheckerboard="1"
     inkscape:document-units="mm"
     showgrid="false"
     inkscape:zoom="0.53294587"
     inkscape:cx="-1053.5779"
     inkscape:cy="291.77447"
     inkscape:window-width="2863"
     inkscape:window-height="1211"
     inkscape:window-x="55"
     inkscape:window-y="-8"
     inkscape:window-maximized="1"
     inkscape:current-layer="svg21" />
  <metadata
     id="metadata2">
    <rdf:RDF>
      <cc:Work
         rdf:about="">
        <dc:format>image/svg+xml</dc:format>
        <dc:type
           rdf:resource="http://purl.org/dc/dcmitype/StillImage" />
      </cc:Work>
    </rdf:RDF>
  </metadata>
  <g
     transform="matrix(0.7088,0,0,0.7088,-6.7773,-26.526)"
     id="g12"
     style="display:inline">
    <path
       d="m 93.589,26.906 a 78.519,78.519 0 0 0 -67.109,77.675 78.519,78.519 0 0 0 9.2444,36.847 z m -43.58,133.65 a 78.519,78.519 0 0 0 54.99,22.544 78.519,78.519 0 0 0 54.991,-22.544 z m 124.26,-19.122 a 78.519,78.519 0 0 0 9.2467,-36.854 78.519,78.519 0 0 0 -67.115,-77.683 z"
       fill="#ffffff"
       style="paint-order:stroke markers fill"
       id="path4" />
    <path
       d="M 168,150.75 H 42 L 105.004,26.06 Z"
       fill="#206086"
       style="paint-order:stroke markers fill"
       id="path6" />
    <path
       d="m 114.13,44.142 -18.28,0.0197 -14.263,28.228 c 2.5018,4.065 5.6841,13.723 9.5052,25.496 -4.1745,12.864 -7.9466,24.139 -10.475,27.242 l 12.555,25.626 h 26.693 l 9.2248,-15.732 -14.3,-35.725 12.641,-28.932 z"
       fill="#e30400"
       stroke-width="0.5663"
       style="paint-order:stroke fill markers"
       id="path8" />
    <path
       d="m 123.82,63.322 -11.411,22.183 -7.331,-12.621 -5.5745,10.432 38.587,67.439 h 10.066 l -27.678,-50.465 9.9224,-23.942 z m -37.68,0.0564 -1.0607,2.1004 48.86,85.276 h 2.2597 z m -1.7686,3.5007 -5.8466,11.569 11.927,22.178 -26.49,50.129 h 15.048 l 19.543,-36.45 8.4116,14.624 6.5988,-10.134 z"
       fill="#ffffff"
       style="paint-order:stroke markers fill"
       id="path10" />
  </g>
  <g
     transform="matrix(0.36369,0.56336,-0.56336,0.36369,88.706,-44.403)"
     id="g19">
    <circle
       id="path61139"
       transform="rotate(-46.266)"
       cx="-4.8413"
       cy="141.10001"
       r="90.968002"
       display="none"
       fill="#ff0000"
       opacity="0.26619"
       style="paint-order:stroke markers fill" />
    <text
       transform="rotate(38.746,98.601,101.05)"
       fill="#ffffff"
       font-family="'Nexa Bold'"
       font-size="14.319px"
       stroke-width="0.26458"
       style="line-height:0;font-variant-ligatures:normal;font-variant-caps:normal;font-variant-numeric:normal;font-variant-east-asian:normal;-inkscape-font-specification:'Nexa Bold, Normal';font-family:'Nexa Bold';font-weight:normal;font-style:normal;font-stretch:normal;font-variant:normal;font-size:13.9416px;fill:#ffffff;stroke-width:0.26458"
       xml:space="preserve"
       id="text17"><textPath
         xlink:href="#path61139"
         id="textPath15">UKSHUFFLEDANCE▿UKSHUFFLEDANCE▿UKSHUFFLEDANCE▿UKSHUFFLEDANCE▿</textPath></text>
  </g>
</svg>
