<?xml version="1.0" encoding="UTF-8"?>
<svg width="135.47mm" height="135.47mm" version="1.1" xmlns="http://www.w3.org/2000/svg" xmlns:cc="http://creativecommons.org/ns#" xmlns:rdf="http://www.w3.org/1999/02/22-rdf-syntax-ns#" style="/*! background-color: black; */" xmlns:dc="http://purl.org/dc/elements/1.1/" viewBox="0 0 135.47 95.785">
    <metadata>
        <rdf:RDF>
            <cc:Work rdf:about="">
                <dc:format xmlns:dc="http://purl.org/dc/elements/1.1/">image/svg+xml</dc:format>
                <dc:type xmlns:dc="http://purl.org/dc/elements/1.1/" rdf:resource="http://purl.org/dc/dcmitype/StillImage" />
            </cc:Work>
        </rdf:RDF>
    </metadata>
    <g transform="matrix(.7088 0 0 .7088 -6.7773 -26.526)">
        <path d="m93.589 26.906a78.519 78.519 0 0 0-67.109 77.675 78.519 78.519 0 0 0 9.2444 36.847zm-43.58 133.65a78.519 78.519 0 0 0 54.99 22.544 78.519 78.519 0 0 0 54.991-22.544zm124.26-19.122a78.519 78.519 0 0 0 9.2467-36.854 78.519 78.519 0 0 0-67.115-77.683z" fill="#fff" style="paint-order:stroke markers fill" />
        <path d="m168 150.75h-126l63.004-124.69z" fill="#206086" style="paint-order:stroke markers fill" />
        <path d="m114.13 44.142-18.28 0.0197-14.263 28.228c2.5018 4.065 5.6841 13.723 9.5052 25.496-4.1745 12.864-7.9466 24.139-10.475 27.242l12.555 25.626h26.693l9.2248-15.732-14.3-35.725 12.641-28.932z" fill="#e30400" stroke-width=".5663" style="paint-order:stroke fill markers" />
        <path d="m123.82 63.322-11.411 22.183-7.331-12.621-5.5745 10.432 38.587 67.439h10.066l-27.678-50.465 9.9224-23.942zm-37.68 0.0564-1.0607 2.1004 48.86 85.276h2.2597zm-1.7686 3.5007-5.8466 11.569 11.927 22.178-26.49 50.129h15.048l19.543-36.45 8.4116 14.624 6.5988-10.134z" fill="#fff" style="paint-order:stroke markers fill" />
    </g>
    <g>
        <animateTransform xmlns="http://www.w3.org/2000/svg" attributeName="transform" begin="0s" dur="30s" type="rotate" repeatCount="indefinite" to="360 67.644638 47.896909" from="0 67.644638 47.896909" />
        <g xmlns="http://www.w3.org/2000/svg" transform="matrix(.36369 .56336 -.56336 .36369 88.706 -44.403)">

            <circle id="path61139" cx="-4.8413" cy="141.1" r="90.968" fill="#f00" opacity=".26619" style="paint-order:stroke markers fill" transform="rotate(-46.266)" display="none" />
            <text textLength="572" transform="rotate(38.746 98.601 101.05)" fill="#ffffff" font-family="'Nexa Bold'" stroke-width=".26458" style="font-variant-caps:normal;font-variant-east-asian:normal;font-variant-ligatures:normal;font-variant-numeric:normal;line-height:0" xml:space="preserve" font-size="13.9px">
                <textPath xlink:href="#path61139" xmlns:xlink="http://www.w3.org/1999/xlink">UKSHUFFLEDANCE▿UKSHUFFLEDANCE▿UKSHUFFLEDANCE▿UKSHUFFLEDANCE▿</textPath>
            </text>
        </g>
    </g>
</svg>